<?xml version="1.0" encoding="utf-8"?>
<!-- Generator: Adobe Illustrator 23.0.3, SVG Export Plug-In . SVG Version: 6.00 Build 0)  -->
<svg version="1.1" id="Layer_1" xmlns="http://www.w3.org/2000/svg" xmlns:xlink="http://www.w3.org/1999/xlink" x="0px" y="0px"
	 viewBox="0 0 512 131" style="enable-background:new 0 0 512 131;" xml:space="preserve">

<g>
	<path fill="#FFC90F" d="M100,61h26c2.2,0,4,1.8,4,4l0,0c0,2.2-1.8,4-4,4h-26c-2.2,0-4-1.8-4-4l0,0C96,62.8,97.8,61,100,61z"/>
	<circle fill="#FFC90F" cx="142" cy="65" r="4"/>
	<circle fill="#FFC90F" cx="158" cy="65" r="4"/>
	<path fill="#FFC90F" d="M379.9,35.1L379.9,35.1c-16.6,0-30,13.4-30,30l0,0c0,16.6,13.4,30,30,30l0,0c16.6,0,30-13.4,30-30l0,0
		C409.9,48.5,396.4,35.1,379.9,35.1z"/>
	<path fill="#04070B" d="M384.8,66l-8,8c-0.5,0.5-1.3,0.5-1.9,0c-0.5-0.5-0.5-1.3,0-1.8l7.1-7.1l-7.1-7.1c-0.5-0.5-0.5-1.3,0-1.8
		c0.5-0.5,1.3-0.5,1.9,0l8,8c0.3,0.3,0.4,0.6,0.4,0.9C385.2,65.4,385.1,65.7,384.8,66z"/>
	<path fill="#FFC90F" d="M345.8,65c-1,0-1.8,0.8-1.8,1.8c0.3,5,1.6,10,3.9,14.5c2.6,5,6.3,9.4,10.9,12.8c4.6,3.3,9.9,5.5,15.5,6.4
		c5,0.8,10.1,0.5,15-0.8c1-0.3,1.5-1.3,1.2-2.2c-0.3-0.9-1.3-1.5-2.3-1.2c-4.3,1.1-8.9,1.4-13.3,0.7c-5-0.8-9.8-2.8-13.9-5.8
		c-4.1-3-7.5-6.9-9.8-11.5c-2-4-3.2-8.4-3.5-12.9C347.6,65.8,346.8,65,345.8,65z"/>
	<path fill="#DCDCDC" d="M397,94.6c0.5,0.9,1.6,1.2,2.4,0.6c4.2-2.7,7.9-6.4,10.6-10.6c3.1-4.8,5-10.2,5.6-15.8
		c0.6-5.6-0.2-11.3-2.2-16.6c-1.8-4.7-4.6-9-8.2-12.6c-0.7-0.7-1.8-0.6-2.5,0.1s-0.6,1.9,0.1,2.6c3.2,3.2,5.6,7,7.2,11.2
		c1.8,4.8,2.5,9.9,2,15c-0.5,5.1-2.3,9.9-5,14.2c-2.5,3.8-5.7,7-9.4,9.4C396.8,92.6,396.5,93.7,397,94.6z"/>
	<path fill="#FFC90F" d="M397,35.4c0.5-0.9,0.2-2-0.7-2.4c-4.5-2.3-9.4-3.6-14.5-3.9c-5.7-0.3-11.3,0.8-16.5,3.1
		c-5.2,2.3-9.7,5.8-13.3,10.2c-3.2,3.9-5.5,8.5-6.8,13.4c-0.3,1,0.4,1.9,1.3,2.1s1.9-0.4,2.2-1.4c1.2-4.3,3.2-8.4,6.1-11.9
		c3.2-4,7.3-7.1,12-9.2c4.7-2.1,9.7-3,14.8-2.8c4.5,0.2,8.9,1.4,12.9,3.4C395.4,36.6,396.5,36.3,397,35.4z"/>
</g>
</svg>
